<svg width="21" height="22" viewBox="0 0 21 22" fill="none" xmlns="http://www.w3.org/2000/svg">
<mask id="path-1-outside-1_103_110" maskUnits="userSpaceOnUse" x="0" y="0" width="21" height="22" fill="black">
<rect fill="white" width="21" height="22"/>
<path fill-rule="evenodd" clip-rule="evenodd" d="M10.006 18.012C14.4276 18.012 18.012 14.4276 18.012 10.006C18.012 5.5844 14.4276 2 10.006 2C5.5844 2 2 5.5844 2 10.006C2 12.7763 3.40708 15.218 5.54556 16.6553L5.41844 18.1083L6.93424 17.4015C7.88013 17.7948 8.9177 18.012 10.006 18.012Z"/>
</mask>
<path fill-rule="evenodd" clip-rule="evenodd" d="M10.006 18.012C14.4276 18.012 18.012 14.4276 18.012 10.006C18.012 5.5844 14.4276 2 10.006 2C5.5844 2 2 5.5844 2 10.006C2 12.7763 3.40708 15.218 5.54556 16.6553L5.41844 18.1083L6.93424 17.4015C7.88013 17.7948 8.9177 18.012 10.006 18.012Z" fill="black"/>
<path d="M5.54556 16.6553L7.53795 16.8296L7.64082 15.6538L6.66124 14.9954L5.54556 16.6553ZM5.41844 18.1083L3.42605 17.934L3.12414 21.3849L6.26368 19.9209L5.41844 18.1083ZM6.93424 17.4015L7.70215 15.5548L6.88806 15.2163L6.08901 15.5889L6.93424 17.4015ZM16.012 10.006C16.012 13.323 13.323 16.012 10.006 16.012V20.012C15.5321 20.012 20.012 15.5321 20.012 10.006H16.012ZM10.006 4C13.323 4 16.012 6.68897 16.012 10.006H20.012C20.012 4.47983 15.5321 0 10.006 0V4ZM4 10.006C4 6.68897 6.68897 4 10.006 4V0C4.47983 0 0 4.47983 0 10.006H4ZM6.66124 14.9954C5.05195 13.9138 4 12.0824 4 10.006H0C0 13.4703 1.76222 16.5222 4.42989 18.3152L6.66124 14.9954ZM7.41083 18.2826L7.53795 16.8296L3.55317 16.481L3.42605 17.934L7.41083 18.2826ZM6.08901 15.5889L4.5732 16.2957L6.26368 19.9209L7.77948 19.2141L6.08901 15.5889ZM10.006 16.012C9.18588 16.012 8.40896 15.8487 7.70215 15.5548L6.16634 19.2482C7.3513 19.7409 8.64952 20.012 10.006 20.012V16.012Z" fill="black" mask="url(#path-1-outside-1_103_110)"/>
<path d="M8.01519 7.7038L5.34534 12.4027C5.28837 12.503 5.41835 12.6041 5.50154 12.5243L8.00447 10.1214C8.07687 10.0519 8.18956 10.0469 8.26792 10.1096L11.0874 12.3651C11.1784 12.4379 11.312 12.4179 11.3776 12.3216L14.6302 7.55109C14.6949 7.45621 14.5748 7.34493 14.4851 7.41667L11.3809 9.90005C11.3079 9.95848 11.2041 9.95848 11.131 9.90005L8.31402 7.64643C8.21796 7.56958 8.07596 7.59685 8.01519 7.7038Z" fill="white"/>
</svg>
